# xmcd CD database file
#
# Track frame offsets:
#	150
#	18605
#	35157
#	56600
#	78130
#	99050
#	116557
#	130320
#	147152
#	163027
#	180447
#
# Disc length: 2681 seconds
#
# Revision: 1
# Processed by: cddbd v1.4PL0 Copyright (c) Steve Scherf et al.
# Submitted via: CDValet v3.40 - Copyright (c) 1996 - 1998 Greg Leichner
#
DISCID=890a770b
DTITLE=Minor, Laura - Salesman's Girl
DYEAR=1900
DGENRE=
TTITLE0=Lonliness
TTITLE1=American Girls
TTITLE2=Don't Come To Me
TTITLE3=Salesman's Girl
TTITLE4=Sink Back
TTITLE5=Tell The World (I Died For Love)
TTITLE6=Can't Keep Giving Away My Light
TTITLE7=Poor Sinner
TTITLE8=As Close To Sacred
TTITLE9=If I Ever Love
TTITLE10=Rust Of The Carolinas
EXTD=
EXTT0=
EXTT1=
EXTT2=
EXTT3=
EXTT4=
EXTT5=
EXTT6=
EXTT7=
EXTT8=
EXTT9=
EXTT10=
PLAYORDER=
